<?xml version="1.0" encoding="utf-8" ?><svg xmlns="http://www.w3.org/2000/svg" xmlns:xlink="http://www.w3.org/1999/xlink" width="253" height="117" viewBox="0 0 253 117"><path fill="white" d="M0 0L253 0L253 117L0 117L0 0Z"/><path d="M224.405 29.1088C226.52 29.3064 231.402 29.179 233.722 29.1879L233.747 75.7243L224.267 75.7409L224.49 72.5956C219.949 76.2596 216.528 77.2962 210.812 75.8557C209.321 75.3697 208.073 74.7635 206.824 73.8222C203.895 71.5872 201.978 68.2774 201.496 64.625C200.89 60.2899 201.85 55.7964 204.509 52.2771C206.565 49.5458 209.637 47.761 213.027 47.3278C217.35 46.7397 220.76 47.9772 224.163 50.5562C223.967 47.213 224.239 42.2872 224.202 38.8228C224.178 36.5748 224.139 30.9846 224.405 29.1088Z"/><path fill="white" d="M216.18 55.6532C219.653 54.6739 223.259 56.711 224.213 60.1911C225.167 63.6712 223.104 67.2624 219.617 68.1912C216.165 69.1105 212.619 67.073 211.675 63.6284C210.73 60.1838 212.742 56.6225 216.18 55.6532Z"/><path d="M148.091 31.1349C149.414 31.09 150.738 31.0536 152.061 31.0258C158.512 30.8963 167.814 30.2632 172.762 35.023C177.98 40.0417 177.82 49.7231 172.816 54.8437C168.401 59.3604 161.592 59.221 155.736 59.298C155.48 59.3328 155.471 59.4085 155.254 59.606C154.74 62.7645 155.132 72.0808 155.195 75.7199L145.019 75.7343L145.014 31.2116L148.091 31.1349Z"/><path fill="white" d="M155.218 39.2525C159.09 39.2625 165.507 39.2005 165.82 44.46C165.944 46.5421 165.53 47.7767 164.179 49.3537C161.448 50.9379 158.327 50.9488 155.223 51.1795C155.164 47.204 155.162 43.228 155.218 39.2525Z"/><path fill="#DE342B" d="M82.3506 22.5049C82.611 22.5086 94.6987 29.391 96.5118 30.2802C96.766 35.8117 96.7397 41.0134 96.748 46.5553C93.0827 49.0887 87.2164 52.5746 83.2513 54.4962L82.965 54.439C82.3261 53.2512 82.4697 40.9252 82.4609 38.7891C77.873 35.8516 73.1878 33.0692 68.413 30.4466C72.0181 28.7926 78.7474 24.6082 82.3506 22.5049Z"/><path fill="#DE342B" d="M81.9676 60.7427C83.1779 60.2787 95.3347 67.7461 96.5668 68.9399C97.1716 73.0823 96.366 80.1442 96.6873 84.6476C93.2659 87.1969 87.4652 90.2433 83.5967 92.3339C83.1566 92.5272 83.349 92.5204 82.8744 92.3404C82.3289 90.8385 82.5996 80.0485 82.4615 77.3511C79.8299 74.4881 72.22 70.5811 68.5338 68.5167C72.9821 65.8744 77.4603 63.2829 81.9676 60.7427Z"/><path d="M189.088 47.3448C193.215 46.7903 196.68 47.9301 200.432 49.342C199.14 51.1303 198.438 53.4453 197.097 55.2258C195.409 55.661 189.199 51.528 188.148 55.3934C188.966 59.0398 200.823 58.8652 200.808 65.964C200.788 74.8091 195.213 76.1678 187.755 76.4355C182.68 76.2616 181.023 75.7338 176.76 72.9451C177.859 71.2953 179.952 68.0144 180.606 66.2383C183.444 68.2311 184.715 68.9911 188.105 69.5775C189.271 69.1715 190.709 68.7699 190.778 67.4282C189.73 65.3794 184.045 63.8118 181.759 61.8329C177.888 58.4813 177.849 54.944 180.773 50.8485C182.584 48.3135 186.254 47.6468 189.088 47.3448Z"/><path fill="#DE342B" d="M16.5273 60.5149C19.5097 61.9444 28.2897 66.7621 30.8757 68.7301C31.335 72.7254 31.1039 80.5542 30.9482 84.6009C27.3115 87.3322 21.6304 90.2709 17.5101 92.5121C17.4851 92.4962 17.4591 92.4817 17.4351 92.4643C16.6986 91.9315 16.8866 79.0992 16.6335 77.099C13.2358 73.7724 7.01395 70.7532 2.74859 68.5214C7.36474 65.8927 11.9578 63.2238 16.5273 60.5149Z"/><path fill="#DE342B" d="M16.2734 22.6996C18.9106 22.852 26.8496 28.9561 30.9799 30.2639L30.9952 46.6286C27.4497 49.1271 21.6598 52.4955 17.8301 54.4108L17.3046 54.3565C16.7697 52.3215 16.88 41.7187 16.8544 38.9608C13.1531 36.1792 6.98204 32.7844 2.76944 30.492C6.47896 28.6646 12.5129 24.9019 16.2734 22.6996Z"/><path fill="#DE342B" d="M48.9396 4.24471C51.663 4.0175 61.2321 10.0436 63.4495 11.784C63.7208 16.5627 63.23 23.8709 63.7786 28.1461C59.686 30.1257 55.1917 33.1885 50.5931 35.4442C50.251 35.4428 50.3545 35.4452 50.041 35.1409C49.6486 30.1662 49.7497 24.7696 49.769 19.7541C45.5067 17.0338 40.2145 14.1898 35.7332 11.59C39.351 9.52472 45.3204 5.59314 48.9396 4.24471Z"/><path fill="#DE342B" d="M48.888 41.9558C51.5799 41.9303 61.0484 48.2007 63.5886 49.8498C63.5807 54.7349 63.414 60.8538 63.6894 65.6412C60.003 68.3933 54.687 71.2467 50.6016 73.3625C50.3964 73.4027 50.3038 73.3164 50.0828 73.2211C49.5635 68.4566 49.7504 62.4196 49.7838 57.5239C46.8346 56.5152 38.5862 51.246 35.6298 49.474C39.4754 47.6321 45.0625 44.1695 48.888 41.9558Z"/><path fill="#DE342B" d="M49.4786 79.4632C53.9561 81.7722 59.4677 84.7968 63.5805 87.6388L63.603 103.48C60.0296 106.325 54.1295 109.455 50.1351 111.644C49.5544 108.844 49.761 98.8789 49.7744 95.5718C45.0688 93.0376 40.3916 89.8953 35.4904 87.4823C40.0039 84.7666 44.8673 82.1923 49.4786 79.4632Z"/><path fill="#DE342B" d="M126.008 18.4354C126.77 18.5517 128.208 18.7244 128.276 19.7366C128.794 27.5248 128.578 35.7097 128.579 43.5079L128.577 73.7058C128.576 79.415 128.648 85.2013 128.487 90.9126C128.434 92.7708 128.162 93.2296 126.374 93.7099C125.627 93.5503 125.122 93.5217 124.624 92.9431C123.026 89.0562 124.597 59.3266 124.133 53.3588C123.48 44.979 124.327 31.8298 124.261 23.0429C124.246 20.9548 124.115 19.4622 126.008 18.4354Z"/><path d="M238.28 48.0014L247.573 48.0067C247.628 56.9388 247.317 66.9136 247.658 75.7356L238.165 75.733C238.19 70.3901 238.184 65.0471 238.149 59.7042C238.112 56.1117 237.867 51.4804 238.28 48.0014Z"/><path d="M242.6 30.9058C245.67 30.6995 248.332 33.0081 248.561 36.0762C248.791 39.1444 246.502 41.8233 243.436 42.0759C240.337 42.3313 237.623 40.0129 237.391 36.9118C237.159 33.8107 239.497 31.1144 242.6 30.9058Z"/></svg>